<?xml version="1.0" encoding="UTF-8"?>
<svg id="Layer_1" data-name="Layer 1" xmlns="http://www.w3.org/2000/svg" viewBox="0 0 23.01 23.01">
  <path d="M21.98,0s-.07,0-.11,0h-5.87c-.55,0-1.01.43-1.01.99,0,.55.43,1.01.99,1.01,0,0,.02,0,.03,0h3.59l-10.29,10.29c-.4.38-.41,1.02-.03,1.41s1.02.41,1.41.03c0,0,.02-.02.03-.03L21,3.42v3.59c0,.55.43,1.01.99,1.01.55,0,1.01-.43,1.01-.99,0,0,0-.02,0-.03V1.14c.08-.55-.31-1.05-.85-1.13-.05,0-.11-.01-.17,0ZM2,4.01c-1.09,0-2,.91-2,2v15c0,1.09.91,2,2,2h15c1.09,0,2-.91,2-2v-12.58l-2,2v10.58H2V6.01h10.58l2-2H2Z"/>
</svg>